<svg width="24" height="22" viewBox="0 0 24 22" fill="none" xmlns="http://www.w3.org/2000/svg">
<path d="M13.47 0.499998C7.53167 0.336664 2.66667 5.10833 2.66667 11H0.578333C0.0533333 11 -0.203333 11.63 0.17 11.9917L3.425 15.2583C3.65833 15.4917 4.02 15.4917 4.25333 15.2583L7.50833 11.9917C7.58895 11.9094 7.64342 11.8052 7.66488 11.692C7.68634 11.5788 7.67382 11.4619 7.6289 11.3558C7.58399 11.2498 7.50869 11.1594 7.41249 11.0961C7.31629 11.0328 7.2035 10.9993 7.08833 11H5C5 6.45 8.71 2.775 13.2833 2.83333C17.6233 2.89166 21.275 6.54333 21.3333 10.8833C21.3917 15.445 17.7167 19.1667 13.1667 19.1667C11.2883 19.1667 9.55 18.525 8.17333 17.44C7.94987 17.264 7.66951 17.1762 7.38556 17.1934C7.10161 17.2106 6.8339 17.3316 6.63333 17.5333C6.14333 18.0233 6.17833 18.8517 6.72667 19.2717C8.55965 20.7212 10.8298 21.5067 13.1667 21.5C19.0583 21.5 23.83 16.635 23.6667 10.6967C23.515 5.225 18.9417 0.651664 13.47 0.499998ZM12.875 6.33333C12.3967 6.33333 12 6.73 12 7.20833V11.5017C12 11.91 12.2217 12.295 12.5717 12.505L16.2117 14.6633C16.6317 14.9083 17.1683 14.7683 17.4133 14.36C17.6583 13.94 17.5183 13.4033 17.11 13.1583L13.75 11.1633V7.19666C13.75 6.73 13.3533 6.33333 12.875 6.33333Z" fill="#00B0D7"/>
</svg>
